<svg width="20" height="20" viewBox="0 0 20 20" fill="none" xmlns="http://www.w3.org/2000/svg">
<g clip-path="url(#clip0_3173_808)">
<path d="M19.7874 10.225C19.7874 9.56671 19.7291 8.94171 19.6291 8.33337H10.2124V12.0917H15.6041C15.3624 13.325 14.6541 14.3667 13.6041 15.075V17.575H16.8207C18.7041 15.8334 19.7874 13.2667 19.7874 10.225Z" fill="#4285F4"/>
<path d="M10.2124 20C12.9124 20 15.1707 19.1 16.8207 17.575L13.604 15.075C12.704 15.675 11.5624 16.0417 10.2124 16.0417C7.60402 16.0417 5.39569 14.2833 4.60402 11.9083H1.28735V14.4833C2.92902 17.75 6.30402 20 10.2124 20Z" fill="#34A853"/>
<path d="M4.60407 11.9084C4.39574 11.3084 4.2874 10.6667 4.2874 10.0001C4.2874 9.33339 4.40407 8.69172 4.60407 8.09172V5.51672H1.2874C0.604068 6.86672 0.212402 8.38339 0.212402 10.0001C0.212402 11.6167 0.604068 13.1334 1.2874 14.4834L4.60407 11.9084Z" fill="#FBBC05"/>
<path d="M10.2124 3.95833C11.6874 3.95833 13.004 4.46667 14.0457 5.45834L16.8957 2.60833C15.1707 0.991668 12.9124 0 10.2124 0C6.30402 0 2.92902 2.25 1.28735 5.51667L4.60402 8.09167C5.39569 5.71667 7.60402 3.95833 10.2124 3.95833Z" fill="#EA4335"/>
</g>
<defs>
<clipPath id="clip0_3173_808">
<rect width="20" height="20" fill="white"/>
</clipPath>
</defs>
</svg>
