<svg width="319" height="36" viewBox="0 0 319 36" fill="none" xmlns="http://www.w3.org/2000/svg">
<path d="M63.7766 10.2363C67.5964 10.2363 68.924 12.1708 68.924 14.4064V21.582C68.924 23.7931 67.5964 25.7499 63.7766 25.7499H58.3146C58.2312 25.7499 58.1511 25.7167 58.0921 25.6577C58.0331 25.5987 58 25.5187 58 25.4353V10.5532C58 10.4695 58.0331 10.3893 58.092 10.3299C58.1509 10.2706 58.231 10.2369 58.3146 10.2363H63.7766ZM60.934 22.8493C60.934 22.933 60.9671 23.0132 61.026 23.0726C61.085 23.1319 61.165 23.1656 61.2486 23.1661H63.4798C65.4611 23.1661 65.9966 22.3741 65.9966 20.8814V15.1048C65.9966 13.6144 65.4611 12.8223 63.4798 12.8223H61.2486C61.1652 12.8223 61.0852 12.8554 61.0262 12.9144C60.9672 12.9734 60.934 13.0535 60.934 13.1369V22.8493Z" fill="#36383B"/>
<path d="M90.5067 12.8223H86.8051C86.7215 12.8223 86.6412 12.7892 86.5819 12.7303C86.5225 12.6713 86.4889 12.5913 86.4883 12.5077V10.5532C86.4889 10.4693 86.5224 10.3891 86.5817 10.3298C86.641 10.2705 86.7213 10.2369 86.8051 10.2363H97.7782C97.8618 10.2369 97.9418 10.2706 98.0008 10.3299C98.0597 10.3893 98.0928 10.4695 98.0928 10.5532V12.5077C98.0928 12.5911 98.0596 12.6711 98.0006 12.7301C97.9416 12.7891 97.8616 12.8223 97.7782 12.8223H94.0721C93.9895 12.8235 93.9106 12.8571 93.8526 12.916C93.7945 12.9749 93.762 13.0542 93.762 13.1369V25.4353C93.7614 25.5189 93.7278 25.5989 93.6684 25.6579C93.6091 25.7168 93.5288 25.7499 93.4452 25.7499H91.1359C91.0524 25.7499 90.9724 25.7167 90.9134 25.6577C90.8544 25.5987 90.8213 25.5187 90.8213 25.4353V13.1369C90.8213 13.0535 90.7881 12.9734 90.7291 12.9144C90.6701 12.8554 90.5901 12.8223 90.5067 12.8223Z" fill="#36383B"/>
<path d="M81.2935 22.5366H76.0056C75.938 22.5362 75.8721 22.5577 75.8178 22.598C75.7635 22.6382 75.7237 22.695 75.7044 22.7597L74.8632 25.5264C74.8431 25.5912 74.8029 25.6478 74.7482 25.688C74.6936 25.7281 74.6276 25.7497 74.5598 25.7495H72.1501C72.1005 25.7502 72.0515 25.739 72.0071 25.7169C71.9627 25.6949 71.9242 25.6625 71.8947 25.6226C71.8653 25.5827 71.8458 25.5364 71.8378 25.4875C71.8298 25.4385 71.8336 25.3884 71.8488 25.3412L76.5344 10.4569C76.5543 10.3925 76.5943 10.3361 76.6484 10.296C76.7026 10.2559 76.7682 10.2341 76.8356 10.2338H80.4724C80.5399 10.2337 80.6057 10.2554 80.6599 10.2956C80.7141 10.3357 80.754 10.3923 80.7737 10.4569L85.4592 25.3412C85.4744 25.3882 85.4782 25.4382 85.4703 25.4869C85.4624 25.5357 85.4431 25.5819 85.4139 25.6217C85.3848 25.6616 85.3466 25.6939 85.3024 25.7162C85.2583 25.7384 85.2096 25.7498 85.1602 25.7495H82.7594C82.692 25.7492 82.6265 25.7274 82.5723 25.6873C82.5181 25.6472 82.4782 25.5908 82.4582 25.5264L81.5947 22.7553C81.5743 22.6915 81.5341 22.6359 81.4799 22.5966C81.4258 22.5573 81.3605 22.5363 81.2935 22.5366ZM76.9159 19.9975H80.3609C80.4098 19.9973 80.458 19.9858 80.5018 19.9639C80.5455 19.9419 80.5836 19.9101 80.613 19.871C80.6424 19.8319 80.6623 19.7865 80.6712 19.7384C80.6801 19.6902 80.6778 19.6407 80.6643 19.5937L78.9597 13.6966C78.9408 13.631 78.9011 13.5733 78.8466 13.5323C78.792 13.4912 78.7256 13.469 78.6574 13.469C78.5891 13.469 78.5227 13.4912 78.4682 13.5323C78.4136 13.5733 78.3739 13.631 78.355 13.6966L76.6147 19.5937C76.6008 19.6406 76.5981 19.69 76.6067 19.7382C76.6153 19.7863 76.635 19.8318 76.6642 19.871C76.6934 19.9102 76.7314 19.942 76.7751 19.964C76.8188 19.986 76.867 19.9974 76.9159 19.9975Z" fill="#36383B"/>
<path d="M108.649 22.5369H103.16C103.121 22.5371 103.084 22.5495 103.053 22.5724C103.022 22.5953 102.999 22.6274 102.988 22.6641L102.095 25.6227C102.084 25.6594 102.061 25.6915 102.03 25.7144C102 25.7373 101.962 25.7497 101.924 25.7499H99.2195C99.1923 25.7497 99.1655 25.7434 99.1412 25.7313C99.1169 25.7193 99.0956 25.7018 99.0791 25.6803C99.0625 25.6588 99.0511 25.6338 99.0456 25.6071C99.0402 25.5805 99.0409 25.553 99.0477 25.5268L103.827 10.3635C103.838 10.3268 103.861 10.2947 103.892 10.2718C103.923 10.2489 103.96 10.2365 103.999 10.2363H107.834C107.873 10.2365 107.91 10.2489 107.941 10.2718C107.972 10.2947 107.995 10.3268 108.006 10.3635L112.785 25.5178C112.792 25.5441 112.793 25.5716 112.787 25.5982C112.782 25.6248 112.77 25.6498 112.754 25.6714C112.737 25.6929 112.716 25.7103 112.692 25.7224C112.667 25.7344 112.641 25.7408 112.613 25.741H109.916C109.878 25.7413 109.84 25.7293 109.809 25.7068C109.778 25.6843 109.756 25.6525 109.744 25.616L108.82 22.6574C108.808 22.6218 108.785 22.5909 108.754 22.5693C108.723 22.5476 108.686 22.5363 108.649 22.5369ZM103.99 19.9978H107.798C107.825 19.9973 107.852 19.9906 107.876 19.9784C107.9 19.9663 107.921 19.9488 107.938 19.9274C107.954 19.906 107.966 19.8812 107.971 19.8548C107.977 19.8283 107.977 19.801 107.97 19.7747L106.087 13.2551C106.077 13.2177 106.054 13.1847 106.023 13.1613C105.992 13.1378 105.954 13.1251 105.915 13.1251C105.876 13.1251 105.839 13.1378 105.808 13.1613C105.777 13.1847 105.754 13.2177 105.744 13.2551L103.818 19.7747C103.811 19.801 103.81 19.8285 103.816 19.8551C103.821 19.8817 103.833 19.9067 103.849 19.9282C103.866 19.9498 103.887 19.9672 103.912 19.9793C103.936 19.9913 103.963 19.9977 103.99 19.9978Z" fill="#36383B"/>
<path d="M126.625 25.9843C124.942 25.9843 123.01 25.5849 121.939 25.1253C121.894 25.1043 121.858 25.0691 121.835 25.025C121.813 24.981 121.805 24.9307 121.814 24.8821L122.241 22.9699C122.256 22.9138 122.292 22.8659 122.342 22.8363C122.392 22.8068 122.452 22.7978 122.508 22.8115C123.856 23.233 125.258 23.4541 126.669 23.4675C128.789 23.4675 129.137 23.0212 129.137 21.5352C129.137 19.8105 129.09 19.6722 126.297 19.0653C122.546 18.2264 122.033 17.5035 122.033 14.2214C122.033 11.4011 123.314 10.0044 127.252 10.0044C128.707 10.0118 130.158 10.1696 131.58 10.4752C131.631 10.4887 131.676 10.5199 131.706 10.5632C131.736 10.6065 131.75 10.6591 131.745 10.7117L131.469 12.7577C131.458 12.8151 131.426 12.8661 131.378 12.8999C131.331 12.9337 131.272 12.9475 131.214 12.9384C129.924 12.6721 128.61 12.5316 127.292 12.519C125.313 12.519 124.965 12.9384 124.965 14.2905C124.965 16.0599 125.009 16.1067 127.689 16.7605C131.859 17.7601 132.069 18.4361 132.069 21.5352C132.076 24.4693 131.212 25.9843 126.625 25.9843Z" fill="#36383B"/>
<path d="M145.622 23.7485H142.197C142.153 23.747 142.111 23.7327 142.075 23.7073C142.039 23.6819 142.012 23.6466 141.996 23.6057L139.567 16.7916C139.544 16.7512 139.51 16.7187 139.469 16.6985C139.427 16.6783 139.381 16.6714 139.335 16.6787C139.29 16.686 139.248 16.7073 139.215 16.7395C139.182 16.7717 139.16 16.8132 139.152 16.8585L138.928 25.5424C138.924 25.5988 138.899 25.6516 138.858 25.6901C138.816 25.7287 138.762 25.75 138.705 25.7499H136.155C136.096 25.7499 136.039 25.7264 135.997 25.6845C135.955 25.6427 135.932 25.5859 135.932 25.5268L136.601 10.4416C136.606 10.3856 136.631 10.3333 136.673 10.2952C136.714 10.2572 136.768 10.2361 136.824 10.2363H139.756C139.8 10.2376 139.842 10.2516 139.878 10.2766C139.913 10.3015 139.941 10.3364 139.957 10.3769L143.71 20.7029C143.728 20.7406 143.757 20.7724 143.792 20.7947C143.828 20.817 143.869 20.8288 143.911 20.8288C143.953 20.8288 143.994 20.817 144.029 20.7947C144.065 20.7724 144.093 20.7406 144.111 20.7029L147.864 10.3858C147.88 10.3453 147.908 10.3105 147.944 10.2855C147.979 10.2605 148.022 10.2465 148.065 10.2453H150.997C151.053 10.2451 151.107 10.2661 151.149 10.3042C151.19 10.3422 151.216 10.3945 151.22 10.4505L151.889 25.5357C151.889 25.5949 151.866 25.6516 151.824 25.6935C151.782 25.7353 151.726 25.7588 151.666 25.7588H149.096C149.039 25.7589 148.985 25.7376 148.943 25.6991C148.902 25.6605 148.877 25.6077 148.873 25.5513L148.65 16.8675C148.641 16.8223 148.619 16.781 148.586 16.749C148.553 16.7171 148.51 16.6962 148.465 16.6891C148.42 16.682 148.373 16.6891 148.332 16.7095C148.291 16.7298 148.257 16.7624 148.235 16.8028L145.805 23.6146C145.789 23.6512 145.764 23.683 145.732 23.7065C145.7 23.7301 145.662 23.7446 145.622 23.7485Z" fill="#36383B"/>
<path d="M164.937 22.5369H159.488C159.443 22.5382 159.399 22.5534 159.362 22.5806C159.325 22.6077 159.298 22.6454 159.283 22.6887L158.391 25.5892C158.376 25.6325 158.348 25.6702 158.312 25.6973C158.275 25.7245 158.231 25.7397 158.185 25.741H155.566C155.533 25.739 155.501 25.7298 155.473 25.7141C155.444 25.6985 155.419 25.6767 155.399 25.6502C155.38 25.6238 155.367 25.5935 155.36 25.5613C155.354 25.5292 155.355 25.4961 155.363 25.4643L160.122 10.3858C160.137 10.3433 160.164 10.3063 160.2 10.2796C160.237 10.253 160.28 10.2379 160.325 10.2363H164.118C164.163 10.2379 164.206 10.253 164.243 10.2796C164.279 10.3063 164.306 10.3433 164.321 10.3858L169.078 25.4732C169.086 25.505 169.087 25.5381 169.08 25.5703C169.074 25.6024 169.061 25.6328 169.041 25.6592C169.022 25.6856 168.997 25.7074 168.968 25.7231C168.94 25.7387 168.908 25.7479 168.875 25.7499H166.242C166.197 25.7488 166.153 25.7339 166.116 25.7072C166.08 25.6805 166.052 25.6432 166.037 25.6004L165.129 22.6864C165.115 22.6456 165.089 22.6098 165.055 22.5832C165.021 22.5567 164.98 22.5406 164.937 22.5369ZM160.338 19.9978H164.044C164.077 19.9961 164.109 19.9872 164.138 19.9718C164.167 19.9564 164.192 19.9349 164.211 19.9087C164.231 19.8825 164.244 19.8523 164.251 19.8203C164.258 19.7883 164.257 19.7552 164.25 19.7234L162.411 13.3622C162.394 13.3226 162.365 13.289 162.329 13.2654C162.293 13.2417 162.25 13.2291 162.207 13.2291C162.164 13.2291 162.121 13.2417 162.085 13.2654C162.049 13.289 162.02 13.3226 162.003 13.3622L160.124 19.7234C160.117 19.7559 160.116 19.7898 160.123 19.8224C160.131 19.855 160.145 19.8857 160.165 19.912C160.186 19.9384 160.212 19.9597 160.242 19.9746C160.272 19.9895 160.305 19.9974 160.338 19.9978Z" fill="#36383B"/>
<path d="M181.895 25.6584L178.459 20.7185C178.438 20.6907 178.412 20.668 178.381 20.6521C178.351 20.6362 178.317 20.6277 178.282 20.6271H175.803C175.746 20.627 175.691 20.6489 175.65 20.6884C175.608 20.7279 175.583 20.7818 175.58 20.839V25.5379C175.58 25.5971 175.557 25.6539 175.515 25.6957C175.473 25.7375 175.416 25.761 175.357 25.761H172.867C172.81 25.7582 172.756 25.7334 172.717 25.6919C172.677 25.6503 172.655 25.5952 172.655 25.5379V10.4505C172.655 10.3932 172.677 10.3381 172.717 10.2966C172.756 10.255 172.81 10.2303 172.867 10.2274H179.014C182.624 10.2274 183.952 11.6955 183.952 14.4221V16.448C183.952 18.2151 183.323 19.4802 181.866 20.1027C181.838 20.1166 181.814 20.1362 181.794 20.1601C181.774 20.184 181.76 20.2117 181.751 20.2415C181.743 20.2713 181.741 20.3025 181.745 20.3332C181.749 20.3638 181.76 20.3932 181.776 20.4195L185.241 25.4152C185.26 25.4479 185.271 25.4849 185.272 25.5227C185.272 25.5605 185.264 25.5979 185.246 25.6314C185.228 25.6648 185.203 25.6933 185.171 25.714C185.139 25.7347 185.103 25.7471 185.065 25.7499H182.06C182.027 25.7476 181.996 25.7383 181.967 25.7225C181.939 25.7067 181.914 25.6848 181.895 25.6584ZM178.898 12.8223H175.803C175.744 12.8223 175.688 12.8458 175.646 12.8877C175.604 12.9295 175.58 12.9862 175.58 13.0454V17.8737C175.58 17.9329 175.604 17.9897 175.646 18.0315C175.688 18.0734 175.744 18.0969 175.803 18.0969H178.898C180.505 18.0969 181.018 17.5145 181.018 16.2093V14.663C181.018 13.3578 180.458 12.8223 178.898 12.8223Z" fill="#36383B"/>
<path d="M191.1 12.8223H187.193C187.134 12.8223 187.077 12.7988 187.036 12.757C186.994 12.7151 186.97 12.6584 186.97 12.5992V10.4505C186.97 10.3914 186.994 10.3346 187.036 10.2928C187.077 10.2509 187.134 10.2274 187.193 10.2274H198.367C198.426 10.2274 198.483 10.2509 198.525 10.2928C198.567 10.3346 198.59 10.3914 198.59 10.4505V12.617C198.59 12.6762 198.567 12.733 198.525 12.7748C198.483 12.8166 198.426 12.8402 198.367 12.8402H194.463C194.403 12.8402 194.347 12.8637 194.305 12.9055C194.263 12.9473 194.239 13.0041 194.239 13.0633V25.558C194.239 25.6172 194.216 25.6739 194.174 25.7158C194.132 25.7576 194.076 25.7811 194.016 25.7811H191.526C191.469 25.7783 191.415 25.7535 191.376 25.712C191.336 25.6704 191.314 25.6153 191.314 25.558V13.0633C191.317 13.0332 191.313 13.003 191.304 12.9745C191.294 12.9459 191.279 12.9196 191.259 12.897C191.239 12.8745 191.214 12.8563 191.187 12.8434C191.16 12.8306 191.13 12.8234 191.1 12.8223Z" fill="#36383B"/>
<path d="M217.609 23.7486H214.168C214.126 23.7483 214.085 23.7351 214.051 23.7107C214.017 23.6864 213.991 23.6521 213.977 23.6125L211.522 16.7426C211.507 16.6973 211.475 16.6591 211.434 16.6346C211.393 16.61 211.345 16.6008 211.298 16.6086C211.25 16.6163 211.207 16.6405 211.176 16.6769C211.145 16.7132 211.128 16.7594 211.127 16.8073L210.9 25.5581C210.899 25.6111 210.877 25.6616 210.839 25.6988C210.801 25.7359 210.75 25.7567 210.697 25.7566H208.111C208.082 25.7568 208.054 25.7509 208.028 25.7395C208.002 25.7281 207.979 25.7113 207.96 25.6903C207.94 25.6692 207.926 25.6444 207.917 25.6174C207.908 25.5904 207.905 25.5618 207.908 25.5335L208.577 10.4283C208.579 10.3758 208.602 10.3262 208.639 10.2896C208.677 10.2531 208.728 10.2325 208.78 10.2319H211.728C211.769 10.2317 211.81 10.2445 211.845 10.2685C211.879 10.2924 211.905 10.3264 211.919 10.3658L215.697 20.7275C215.711 20.7674 215.737 20.802 215.771 20.8265C215.805 20.851 215.847 20.8642 215.889 20.8642C215.931 20.8642 215.972 20.851 216.007 20.8265C216.041 20.802 216.067 20.7674 216.081 20.7275L219.847 10.3703C219.861 10.3309 219.887 10.2969 219.922 10.2729C219.956 10.249 219.997 10.2362 220.039 10.2364H222.984C223.037 10.2364 223.087 10.2568 223.125 10.2935C223.163 10.3301 223.185 10.3801 223.187 10.4327L223.856 25.538C223.86 25.5664 223.857 25.5951 223.848 25.6222C223.839 25.6494 223.825 25.6744 223.805 25.6955C223.786 25.7166 223.763 25.7334 223.736 25.7447C223.71 25.756 223.682 25.7616 223.653 25.7611H221.072C221.019 25.7611 220.968 25.7403 220.93 25.7032C220.892 25.6661 220.87 25.6156 220.869 25.5625L220.646 16.8184C220.644 16.7711 220.626 16.7258 220.594 16.6903C220.563 16.6548 220.52 16.6313 220.474 16.6237C220.427 16.616 220.379 16.6248 220.338 16.6485C220.297 16.6723 220.265 16.7094 220.249 16.7537L217.794 23.6236C217.778 23.6599 217.753 23.691 217.72 23.7131C217.687 23.7353 217.649 23.7476 217.609 23.7486Z" fill="#36383B"/>
<path d="M236.914 22.537H231.461C231.417 22.5366 231.375 22.5503 231.34 22.576C231.305 22.6018 231.279 22.6382 231.266 22.6798L230.374 25.6071C230.361 25.6487 230.336 25.6851 230.301 25.7109C230.266 25.7366 230.223 25.7503 230.18 25.7499H227.534C227.502 25.7499 227.47 25.7425 227.442 25.7281C227.413 25.7138 227.389 25.693 227.37 25.6673C227.351 25.6417 227.338 25.612 227.333 25.5806C227.328 25.5492 227.33 25.517 227.339 25.4866L232.096 10.3858C232.109 10.3444 232.135 10.3082 232.17 10.2825C232.205 10.2568 232.247 10.243 232.291 10.243H236.084C236.127 10.2433 236.169 10.2573 236.204 10.283C236.239 10.3086 236.264 10.3446 236.278 10.3858L241.039 25.4933C241.048 25.5237 241.051 25.5559 241.045 25.5873C241.04 25.6187 241.027 25.6484 241.009 25.674C240.99 25.6997 240.965 25.7205 240.937 25.7348C240.908 25.7492 240.877 25.7566 240.845 25.7566H238.199C238.155 25.7566 238.113 25.7428 238.078 25.7171C238.043 25.6914 238.017 25.6552 238.005 25.6138L237.092 22.6865C237.081 22.6462 237.058 22.6103 237.026 22.5836C236.994 22.5568 236.955 22.5406 236.914 22.537ZM232.304 19.9979H236.046C236.077 19.9977 236.108 19.9902 236.137 19.976C236.165 19.9618 236.189 19.9412 236.208 19.916C236.227 19.8907 236.24 19.8614 236.246 19.8303C236.252 19.7992 236.251 19.7672 236.242 19.7368L234.392 13.331C234.379 13.289 234.353 13.2521 234.318 13.2259C234.283 13.1998 234.24 13.1856 234.196 13.1856C234.152 13.1856 234.109 13.1998 234.074 13.2259C234.038 13.2521 234.012 13.289 234 13.331L232.108 19.7368C232.099 19.7672 232.098 19.7992 232.103 19.8303C232.109 19.8614 232.122 19.8907 232.141 19.916C232.16 19.9412 232.185 19.9618 232.213 19.976C232.241 19.9902 232.272 19.9977 232.304 19.9979Z" fill="#36383B"/>
<path d="M247.491 14.8482V25.558C247.491 25.6118 247.47 25.6635 247.432 25.7016C247.394 25.7396 247.342 25.761 247.288 25.761H244.834C244.78 25.761 244.728 25.7397 244.69 25.7017C244.651 25.6637 244.629 25.612 244.629 25.558V10.4416C244.629 10.4146 244.634 10.3879 244.644 10.363C244.655 10.3381 244.67 10.3155 244.689 10.2964C244.708 10.2774 244.73 10.2623 244.755 10.252C244.78 10.2416 244.807 10.2363 244.834 10.2363H248.417C248.455 10.2366 248.492 10.2474 248.524 10.2675C248.556 10.2876 248.581 10.3162 248.598 10.3501L254.049 21.2518C254.069 21.2935 254.103 21.3271 254.144 21.3471C254.186 21.367 254.234 21.372 254.279 21.3614C254.324 21.3507 254.364 21.3249 254.392 21.2884C254.421 21.2518 254.436 21.2066 254.435 21.1603V10.4505C254.435 10.3961 254.456 10.3439 254.495 10.3054C254.533 10.2669 254.586 10.2453 254.64 10.2453H257.094C257.149 10.2453 257.201 10.2669 257.24 10.3054C257.278 10.3439 257.3 10.3961 257.3 10.4505V25.558C257.299 25.612 257.277 25.6637 257.239 25.7017C257.2 25.7397 257.148 25.761 257.094 25.761H253.516C253.478 25.7613 253.44 25.7511 253.408 25.7314C253.376 25.7116 253.35 25.6833 253.333 25.6495L247.884 14.759C247.867 14.7127 247.834 14.6742 247.79 14.6506C247.747 14.6271 247.697 14.6201 247.648 14.6311C247.6 14.642 247.558 14.6701 247.529 14.71C247.5 14.75 247.487 14.7991 247.491 14.8482Z" fill="#36383B"/>
<path d="M270.458 22.537H265.004C264.961 22.5368 264.918 22.5505 264.883 22.5762C264.848 22.6019 264.821 22.6382 264.808 22.6798L263.916 25.6071C263.903 25.6487 263.877 25.6851 263.842 25.7109C263.807 25.7366 263.765 25.7503 263.722 25.7499H261.075C261.043 25.7499 261.012 25.7425 260.984 25.7281C260.955 25.7138 260.931 25.693 260.912 25.6673C260.893 25.6417 260.88 25.612 260.875 25.5806C260.87 25.5492 260.872 25.517 260.881 25.4866L265.647 10.3858C265.66 10.3444 265.686 10.3082 265.721 10.2825C265.756 10.2568 265.798 10.243 265.841 10.243H269.634C269.678 10.2429 269.72 10.2566 269.756 10.2823C269.791 10.308 269.817 10.3443 269.831 10.3858L274.592 25.4933C274.601 25.5237 274.604 25.5559 274.598 25.5873C274.593 25.6187 274.58 25.6484 274.561 25.674C274.543 25.6997 274.518 25.7205 274.49 25.7348C274.461 25.7492 274.43 25.7566 274.398 25.7566H271.752C271.708 25.7566 271.666 25.7428 271.631 25.7171C271.596 25.6914 271.57 25.6552 271.558 25.6138L270.645 22.6865C270.634 22.6449 270.609 22.608 270.576 22.5811C270.542 22.5542 270.501 22.5388 270.458 22.537ZM265.848 19.9979H269.581C269.612 19.9977 269.643 19.9902 269.672 19.976C269.7 19.9618 269.725 19.9412 269.744 19.916C269.763 19.8907 269.775 19.8614 269.781 19.8303C269.787 19.7992 269.786 19.7672 269.777 19.7368L267.927 13.331C267.915 13.289 267.889 13.2521 267.853 13.2259C267.818 13.1998 267.775 13.1856 267.731 13.1856C267.687 13.1856 267.644 13.1998 267.609 13.2259C267.573 13.2521 267.547 13.289 267.535 13.331L265.643 19.7368C265.634 19.768 265.632 19.8008 265.639 19.8326C265.645 19.8643 265.659 19.8942 265.679 19.9196C265.699 19.9451 265.725 19.9654 265.754 19.979C265.783 19.9926 265.816 19.9991 265.848 19.9979Z" fill="#36383B"/>
<path d="M280.413 20.953C280.413 22.4658 281.067 23.3516 283.115 23.3516C283.862 23.3482 284.607 23.2946 285.347 23.1909C285.395 23.1839 285.44 23.1596 285.473 23.1223C285.505 23.085 285.523 23.0373 285.523 22.9879V18.6638C285.523 18.61 285.544 18.5583 285.582 18.5202C285.62 18.4822 285.672 18.4608 285.726 18.4608H288.091C288.145 18.4608 288.196 18.4822 288.235 18.5202C288.273 18.5583 288.294 18.61 288.294 18.6638V25.1343C288.294 25.1789 288.28 25.2223 288.253 25.2578C288.226 25.2933 288.188 25.3189 288.145 25.3306C286.498 25.768 284.803 25.993 283.1 26C279.307 26 277.486 24.3913 277.486 21.3145V14.6856C277.486 11.495 279.349 10 283.379 10C284.817 9.99682 286.251 10.154 287.654 10.4686C287.702 10.4803 287.745 10.5096 287.773 10.5509C287.801 10.5921 287.812 10.6423 287.805 10.6917L287.529 12.8582C287.525 12.8858 287.516 12.9124 287.502 12.9363C287.488 12.9603 287.469 12.9809 287.446 12.9971C287.423 13.0132 287.398 13.0245 287.37 13.0302C287.343 13.0359 287.315 13.0358 287.288 13.03C285.923 12.7676 284.536 12.642 283.147 12.6552C281.096 12.6552 280.42 13.4941 280.42 15.0783L280.413 20.953Z" fill="#36383B"/>
<path d="M292.801 10.2363H301.897C301.951 10.2369 302.003 10.2588 302.041 10.2972C302.079 10.3357 302.1 10.3875 302.1 10.4416V12.617C302.1 12.6709 302.079 12.7225 302.041 12.7606C302.003 12.7987 301.951 12.8201 301.897 12.8201H295.737C295.683 12.8201 295.63 12.8417 295.592 12.8802C295.553 12.9187 295.532 12.9709 295.532 13.0253V16.3721C295.532 16.4262 295.554 16.4778 295.593 16.5158C295.631 16.5539 295.683 16.5752 295.737 16.5752H301.384C301.411 16.5752 301.437 16.5804 301.462 16.5906C301.486 16.6008 301.509 16.6158 301.528 16.6346C301.547 16.6535 301.562 16.6759 301.572 16.7005C301.582 16.7251 301.587 16.7516 301.587 16.7782V18.9536C301.587 18.9805 301.582 19.0071 301.572 19.032C301.562 19.0569 301.547 19.0796 301.528 19.0987C301.51 19.1177 301.487 19.1329 301.462 19.1432C301.438 19.1536 301.411 19.1589 301.384 19.1589H295.737C295.683 19.1589 295.631 19.1802 295.593 19.2182C295.554 19.2563 295.532 19.3079 295.532 19.3619V22.9609C295.532 23.0153 295.553 23.0675 295.592 23.106C295.63 23.1445 295.683 23.1661 295.737 23.1661H301.897C301.951 23.1661 302.003 23.1875 302.041 23.2256C302.079 23.2637 302.1 23.3153 302.1 23.3692V25.558C302.1 25.6118 302.079 25.6635 302.041 25.7016C302.003 25.7396 301.951 25.761 301.897 25.761H292.801C292.747 25.761 292.695 25.7396 292.657 25.7016C292.619 25.6635 292.598 25.6118 292.598 25.558V10.4416C292.598 10.3875 292.619 10.3357 292.657 10.2972C292.695 10.2588 292.747 10.2369 292.801 10.2363Z" fill="#36383B"/>
<path d="M315.527 25.6629L312.085 20.7141C312.066 20.687 312.041 20.6648 312.012 20.6497C311.983 20.6345 311.95 20.6267 311.917 20.627H309.432C309.378 20.627 309.326 20.6484 309.288 20.6865C309.25 20.7246 309.229 20.7762 309.229 20.8301V25.558C309.229 25.6118 309.207 25.6635 309.169 25.7016C309.131 25.7396 309.08 25.761 309.026 25.761H306.498C306.444 25.761 306.392 25.7396 306.354 25.7016C306.316 25.6635 306.295 25.6118 306.295 25.558V10.4416C306.295 10.3875 306.316 10.3357 306.354 10.2972C306.392 10.2588 306.444 10.2369 306.498 10.2363H312.654C316.264 10.2363 317.591 11.7045 317.591 14.431V16.4569C317.591 18.2285 316.96 19.4958 315.494 20.1161C315.466 20.1279 315.442 20.1457 315.422 20.1682C315.402 20.1908 315.388 20.2175 315.379 20.2464C315.371 20.2753 315.37 20.3056 315.375 20.3352C315.38 20.3648 315.392 20.3929 315.409 20.4173L318.89 25.4308C318.911 25.4613 318.923 25.497 318.926 25.5341C318.928 25.5712 318.92 25.6082 318.903 25.6411C318.886 25.6741 318.86 25.7016 318.828 25.7208C318.796 25.7399 318.76 25.75 318.722 25.7499H315.701C315.667 25.7513 315.634 25.7441 315.603 25.7289C315.573 25.7136 315.547 25.6909 315.527 25.6629ZM312.535 12.8223H309.432C309.378 12.8229 309.326 12.8448 309.288 12.8832C309.25 12.9216 309.229 12.9735 309.229 13.0276V17.8827C309.229 17.9367 309.25 17.9886 309.288 18.027C309.326 18.0655 309.378 18.0873 309.432 18.0879H312.535C314.144 18.0879 314.657 17.5056 314.657 16.2003V14.663C314.651 13.3578 314.097 12.8223 312.535 12.8223Z" fill="#36383B"/>
<path d="M36.6426 6.22487L33.9278 4.65331C33.5153 4.41496 33.0475 4.2895 32.5714 4.2895C32.0952 4.2895 31.6275 4.41496 31.215 4.65331L29.8576 5.43803L28.5001 4.65331L27.1427 3.86859L21.715 0.727582C20.8897 0.250913 19.9538 0 19.0012 0C18.0486 0 17.1127 0.250913 16.2874 0.727582L5.42786 7.00959C4.6041 7.48857 3.9201 8.17559 3.4441 9.00212C2.96809 9.82865 2.71673 10.7658 2.71509 11.72V17.9999C3.13989 17.7539 3.59673 17.5681 4.07253 17.4479C4.51502 17.3316 4.97041 17.2719 5.42786 17.2702V11.72C5.42818 11.2425 5.55375 10.7735 5.79199 10.36C6.03024 9.94642 6.37278 9.60288 6.7853 9.36376L17.6427 3.08386C18.0556 2.84554 18.5237 2.72009 19.0001 2.72009C19.4766 2.72009 19.9447 2.84554 20.3576 3.08386L25.1582 5.86106L26.3341 6.54003L27.5058 7.21899L31.215 9.36376C31.6278 9.60255 31.9706 9.94602 32.2089 10.3596C32.4471 10.7733 32.5725 11.2425 32.5724 11.72V24.2798C32.5723 24.7574 32.4468 25.2265 32.2086 25.6401C31.9703 26.0536 31.6277 26.3972 31.215 26.6361L20.3576 32.916C19.9447 33.1543 19.4766 33.2798 19.0001 33.2798C18.5237 33.2798 18.0556 33.1543 17.6427 32.916L12.8421 30.1388C12.6129 30.5358 12.3341 30.9019 12.0124 31.2281C11.671 31.5812 11.2823 31.8851 10.8576 32.1313L16.2853 35.2702C17.1105 35.7483 18.0469 36 19.0001 36C19.9534 36 20.8898 35.7483 21.715 35.2702L32.5724 28.9903C33.3965 28.5116 34.0807 27.8247 34.5568 26.9981C35.0328 26.1715 35.284 25.2342 35.2852 24.2798V14.8589L36.6426 14.0742C37.0553 13.8358 37.398 13.4927 37.6363 13.0794C37.8746 12.6661 38 12.1973 38.0001 11.72V8.57904C38.0003 8.10173 37.8749 7.63281 37.6366 7.21951C37.3982 6.80622 37.0554 6.46315 36.6426 6.22487Z" fill="#0073CE"/>
<path d="M10.8574 24.2798C10.8576 23.8025 10.7322 23.3335 10.4939 22.9203C10.2556 22.507 9.91275 22.1639 9.49997 21.9256L6.78509 20.354C6.37262 20.1157 5.90485 19.9902 5.4287 19.9902C4.95256 19.9902 4.48478 20.1157 4.07232 20.354L2.71488 21.1388L1.35744 21.9256C0.944658 22.1639 0.601843 22.507 0.363533 22.9203C0.125223 23.3335 -0.000165529 23.8025 1.64002e-07 24.2798L1.64003e-07 27.4208C-0.000165529 27.8981 0.125223 28.367 0.363533 28.7803C0.601843 29.1936 0.944658 29.5367 1.35744 29.7749L4.07232 31.3444C4.48436 31.584 4.9523 31.7102 5.4287 31.7102C5.90511 31.7102 6.37305 31.584 6.78509 31.3444L8.14253 30.5597L9.49997 29.7749C9.91304 29.537 10.2561 29.194 10.4944 28.7806C10.7328 28.3673 10.858 27.8982 10.8574 27.4208V24.2798Z" fill="#0073CE"/>
<path d="M13.2451 22.4584C13.3477 22.5504 13.4571 22.6346 13.5723 22.7101L17.6425 25.0643C18.0551 25.3032 18.5233 25.429 18.9999 25.429C19.4765 25.429 19.9447 25.3032 20.3574 25.0643L24.4297 22.7101C24.842 22.4709 25.1842 22.1273 25.4221 21.7137C25.66 21.3001 25.7851 20.8312 25.785 20.3538V15.6519C25.7781 15.5146 25.7605 15.3781 25.7323 15.2436C25.6303 14.5765 25.2814 13.9724 24.7548 13.5515C24.6535 13.4589 24.5447 13.3747 24.4297 13.2998L20.3574 10.9329C19.9444 10.695 19.4763 10.5698 18.9999 10.5698C18.5236 10.5698 18.0555 10.695 17.6425 10.9329L13.5723 13.2892C13.1584 13.5284 12.8149 13.8728 12.5766 14.2877C12.3382 14.7026 12.2134 15.1732 12.2149 15.6519V20.3538C12.2223 20.4919 12.2407 20.6291 12.2697 20.7642C12.3702 21.4319 12.7185 22.037 13.2451 22.4584Z" fill="#0073CE"/>
</svg>
