<svg width="180" height="32" viewBox="0 0 180 32" fill="none" xmlns="http://www.w3.org/2000/svg">
<path d="M9.632 29.5991V13.6017L21.3346 6.80344L23.4001 8.0013L11.6975 14.7995V30.8021L13.7629 32V16.0026L27.5259 8.0013L21.3295 4.40253L7.56653 12.3986V26.0159L6.19127 25.2173V11.6001L19.9594 3.60395L13.7629 0L0 8.0013V24.0143L2.09123 25.2173L2.06547 9.19916L13.7629 2.40091L15.8284 3.59877L4.13094 10.4022V26.3996L9.632 29.5991Z" fill="#2FC9FC"/>
<path d="M15.8281 17.2006L27.5256 10.4023V18.3985L17.8936 23.9262V27.1983L25.4601 22.801V21.1986L27.5256 20.0008V24.0144L15.8281 30.8023V22.801L25.4601 17.2006V14.0011L17.8936 18.3985V20.0008L15.8281 21.1986V17.2006Z" fill="#2FC9FC"/>
<path d="M35.0917 22.4796C33.6494 22.4796 32.13 22.1581 31.0586 21.6654L31.5273 19.4771C32.6708 19.8349 33.8349 20.0838 35.1277 20.0838C36.57 20.0838 36.8532 19.7986 36.8532 18.7408C36.8532 17.6103 36.7966 17.4755 34.7517 17.0244C31.7333 16.3658 31.2801 15.7591 31.2801 13.0419C31.2801 10.5321 32.1609 9.53125 35.5965 9.53125C36.6833 9.53125 37.9967 9.64533 39.3874 9.94609L39.1041 12.3263C37.6774 12.0825 36.7605 11.9685 35.6325 11.9685C34.3757 11.9685 34.0924 12.1966 34.0924 13.1196C34.0924 14.3279 34.1491 14.3486 36.1167 14.8205C39.4956 15.6346 39.6604 16.2932 39.6604 18.7667C39.6656 21.2506 38.8621 22.4796 35.0917 22.4796Z" fill="white"/>
<path d="M44.5437 15.3024L44.3583 22.2873H41.6387L42.1641 9.7124H44.9764L47.9793 17.7189L50.9822 9.7124H53.7946L54.32 22.2873H51.6003L51.4149 15.3024L49.2413 20.6643H46.7174L44.5437 15.3024Z" fill="white"/>
<path d="M67.1977 22.2873H64.2721L63.5973 19.8346H59.4149L58.7401 22.2873H55.8145L59.6209 9.7124H63.3707L67.1977 22.2873ZM60.0536 17.4752H62.9226L61.4958 12.2067L60.0536 17.4752Z" fill="white"/>
<path d="M73.2548 18.3774H71.6014V22.2873H68.7891V9.7124H73.9862C77.0252 9.7124 78.1481 10.9206 78.1481 13.2801V14.8305C78.1481 16.3966 77.5866 17.4544 76.3298 17.9833L79.3482 22.2873H76.0105L73.2548 18.3774ZM75.3357 13.5445C75.3357 12.6008 74.9803 12.2222 73.8369 12.2222H71.6066V15.9247H73.8369C75.037 15.9247 75.3357 15.4891 75.3357 14.5453V13.5445Z" fill="white"/>
<path d="M85.7449 12.2222V22.2873H82.9325V12.2222H79.5742V9.7124H89.1032V12.2222H85.7449Z" fill="white"/>
<path d="M94.4502 22.4794C93.3634 22.4794 91.9932 22.2927 90.9219 21.8727L91.1279 20.9652C92.2508 21.3074 93.3994 21.4734 94.4862 21.4734C96.6238 21.4734 97.2059 20.8304 97.2059 19.228C97.2059 17.2835 97.1852 17.076 94.409 16.433C91.3906 15.733 91.0506 15.1885 91.0506 12.6579C91.0506 10.5993 91.8027 9.52588 94.9343 9.52588C96.0212 9.52588 97.314 9.71256 98.1588 9.96146L98.0248 10.9052C97.108 10.6978 95.9439 10.5267 94.9652 10.5267C92.4877 10.5267 92.1529 11.1334 92.1529 12.6994C92.1529 14.7374 92.2096 14.8307 94.8365 15.4944C98.1175 16.3241 98.3081 16.796 98.3081 19.1762C98.3133 21.2297 97.6179 22.4794 94.4502 22.4794Z" fill="white"/>
<path d="M105.678 22.4794C102.469 22.4794 101.311 20.8926 101.311 18.7406V13.2647C101.311 11.1127 102.475 9.52588 105.678 9.52588C108.887 9.52588 110.046 11.1127 110.046 13.2647V18.7406C110.051 20.8926 108.887 22.4794 105.678 22.4794ZM108.944 18.6991V13.301C108.944 11.5068 108.079 10.5267 105.678 10.5267C103.278 10.5267 102.413 11.5068 102.413 13.301V18.6991C102.413 20.4933 103.273 21.4734 105.678 21.4734C108.084 21.4734 108.944 20.4933 108.944 18.6991Z" fill="white"/>
<path d="M114.439 21.2865H120.064V22.2873H113.332V9.7124H114.439V21.2865Z" fill="white"/>
<path d="M130.754 9.7124V18.7197C130.754 20.851 129.476 22.4792 126.437 22.4792C123.398 22.4792 122.121 20.8561 122.121 18.7197V9.7124H123.229V18.7197C123.229 20.4776 124.336 21.4784 126.437 21.4784C128.539 21.4784 129.646 20.4776 129.646 18.7197V9.7124H130.754Z" fill="white"/>
<path d="M136.85 10.7132H133.002V9.7124H141.8V10.7132H137.952V22.2873H136.844V10.7132H136.85Z" fill="white"/>
<path d="M145.344 22.2873H144.236V9.7124H145.344V22.2873Z" fill="white"/>
<path d="M153.091 22.4794C149.882 22.4794 148.723 20.8926 148.723 18.7406V13.2647C148.723 11.1127 149.887 9.52588 153.091 9.52588C156.299 9.52588 157.458 11.1127 157.458 13.2647V18.7406C157.458 20.8926 156.294 22.4794 153.091 22.4794ZM156.351 18.6991V13.301C156.351 11.5068 155.486 10.5267 153.085 10.5267C150.685 10.5267 149.82 11.5068 149.82 13.301V18.6991C149.82 20.4933 150.68 21.4734 153.085 21.4734C155.491 21.4734 156.351 20.4933 156.351 18.6991Z" fill="white"/>
<path d="M161.791 10.8066V22.2873H160.74V9.7124H162.352L168.281 21.2139V9.7124H169.332V22.2873H167.72L161.791 10.8066Z" fill="white"/>
<path d="M176.138 22.4794C175.051 22.4794 173.681 22.2927 172.609 21.8727L172.815 20.9652C173.938 21.3074 175.087 21.4734 176.174 21.4734C178.311 21.4734 178.893 20.8304 178.893 19.228C178.893 17.2835 178.873 17.076 176.096 16.433C173.078 15.733 172.738 15.1885 172.738 12.6579C172.738 10.5993 173.49 9.52588 176.622 9.52588C177.709 9.52588 179.002 9.71256 179.846 9.96146L179.712 10.9052C178.795 10.6978 177.631 10.5267 176.653 10.5267C174.175 10.5267 173.84 11.1334 173.84 12.6994C173.84 14.7374 173.897 14.8307 176.524 15.4944C179.805 16.3241 179.996 16.796 179.996 19.1762C180.001 21.2297 179.311 22.4794 176.138 22.4794Z" fill="white"/>
</svg>
