<svg width="180" height="32" viewBox="0 0 180 32" fill="none" xmlns="http://www.w3.org/2000/svg">
<g clip-path="url(#clip0_669_20217)">
<path d="M9.63175 29.5991V13.6017L21.3341 6.80344L23.3995 8.0013L11.6972 14.7995V30.8021L13.7626 32V16.0026L27.5252 8.0013L21.3289 4.40253L7.56633 12.3986V26.0159L6.1911 25.2173V11.6001L19.9588 3.60395L13.7626 0L0 8.0013V24.0143L2.09117 25.2173L2.06542 9.19916L13.7626 2.40091L15.828 3.59877L4.13084 10.4022V26.3996L9.63175 29.5991Z" fill="#2FC9FC"/>
<path d="M15.8281 17.2006L27.5253 10.4023V18.3985L17.8935 23.9262V27.1983L25.4599 22.801V21.1986L27.5253 20.0008V24.0144L15.8281 30.8023V22.801L25.4599 17.2006V14.0011L17.8935 18.3985V20.0008L15.8281 21.1986V17.2006Z" fill="#2FC9FC"/>
<path d="M35.0916 22.4791C33.6494 22.4791 32.1299 22.1576 31.0586 21.6649L31.5273 19.4766C32.6708 19.8344 33.8348 20.0833 35.1276 20.0833C36.5698 20.0833 36.8531 19.7981 36.8531 18.7403C36.8531 17.6098 36.7964 17.475 34.7516 17.0239C31.7333 16.3653 31.2801 15.7586 31.2801 13.0414C31.2801 10.5316 32.1608 9.53076 35.5963 9.53076C36.6831 9.53076 37.9965 9.64484 39.3872 9.94561L39.1039 12.3258C37.6772 12.0821 36.7604 11.968 35.6324 11.968C34.3756 11.968 34.0923 12.1961 34.0923 13.1192C34.0923 14.3274 34.149 14.3481 36.1166 14.82C39.4954 15.6341 39.6602 16.2927 39.6602 18.7662C39.6654 21.2501 38.8619 22.4791 35.0916 22.4791Z" fill="#151620"/>
<path d="M44.5437 15.3024L44.3582 22.2873H41.6387L42.164 9.7124H44.9763L47.9791 17.7189L50.982 9.7124H53.7942L54.3196 22.2873H51.6001L51.4146 15.3024L49.2411 20.6643H46.7172L44.5437 15.3024Z" fill="#151620"/>
<path d="M67.1974 22.2873H64.2719L63.5971 19.8346H59.4148L58.74 22.2873H55.8145L59.6208 9.7124H63.3705L67.1974 22.2873ZM60.0535 17.4752H62.9224L61.4956 12.2067L60.0535 17.4752Z" fill="#151620"/>
<path d="M73.2527 18.3774H71.5994V22.2873H68.7871V9.7124H73.9841C77.023 9.7124 78.1459 10.9206 78.1459 13.2801V14.8305C78.1459 16.3966 77.5845 17.4544 76.3277 17.9833L79.346 22.2873H76.0084L73.2527 18.3774ZM75.3336 13.5445C75.3336 12.6008 74.9782 12.2222 73.8348 12.2222H71.6045V15.9247H73.8348C75.0349 15.9247 75.3336 15.4891 75.3336 14.5453V13.5445Z" fill="#151620"/>
<path d="M85.7428 12.2222V22.2873H82.9305V12.2222H79.5723V9.7124H89.101V12.2222H85.7428Z" fill="#151620"/>
<path d="M94.4481 22.4794C93.3613 22.4794 91.9913 22.2927 90.9199 21.8727L91.1259 20.9652C92.2488 21.3074 93.3974 21.4734 94.4842 21.4734C96.6217 21.4734 97.2037 20.8304 97.2037 19.228C97.2037 17.2835 97.1831 17.076 94.4069 16.433C91.3886 15.733 91.0487 15.1885 91.0487 12.6579C91.0487 10.5993 91.8007 9.52588 94.9323 9.52588C96.0191 9.52588 97.3119 9.71256 98.1566 9.96146L98.0227 10.9052C97.1059 10.6978 95.9418 10.5267 94.9632 10.5267C92.4857 10.5267 92.1509 11.1334 92.1509 12.6994C92.1509 14.7374 92.2076 14.8307 94.8344 15.4944C98.1154 16.3241 98.306 16.796 98.306 19.1762C98.3111 21.2297 97.6158 22.4794 94.4481 22.4794Z" fill="#151620"/>
<path d="M105.676 22.4794C102.467 22.4794 101.309 20.8926 101.309 18.7406V13.2647C101.309 11.1127 102.473 9.52588 105.676 9.52588C108.885 9.52588 110.044 11.1127 110.044 13.2647V18.7406C110.049 20.8926 108.885 22.4794 105.676 22.4794ZM108.942 18.6991V13.301C108.942 11.5068 108.077 10.5267 105.676 10.5267C103.276 10.5267 102.411 11.5068 102.411 13.301V18.6991C102.411 20.4933 103.271 21.4734 105.676 21.4734C108.082 21.4734 108.942 20.4933 108.942 18.6991Z" fill="#151620"/>
<path d="M114.437 21.2865H120.062V22.2873H113.33V9.7124H114.437V21.2865Z" fill="#151620"/>
<path d="M130.752 9.7124V18.7197C130.752 20.851 129.474 22.4792 126.435 22.4792C123.397 22.4792 122.119 20.8561 122.119 18.7197V9.7124H123.227V18.7197C123.227 20.4776 124.334 21.4784 126.435 21.4784C128.537 21.4784 129.644 20.4776 129.644 18.7197V9.7124H130.752Z" fill="#151620"/>
<path d="M136.848 10.7132H133V9.7124H141.797V10.7132H137.95V22.2873H136.842V10.7132H136.848Z" fill="#151620"/>
<path d="M145.342 22.2873H144.234V9.7124H145.342V22.2873Z" fill="#151620"/>
<path d="M153.087 22.4794C149.878 22.4794 148.719 20.8926 148.719 18.7406V13.2647C148.719 11.1127 149.883 9.52588 153.087 9.52588C156.295 9.52588 157.454 11.1127 157.454 13.2647V18.7406C157.454 20.8926 156.29 22.4794 153.087 22.4794ZM156.347 18.6991V13.301C156.347 11.5068 155.482 10.5267 153.081 10.5267C150.681 10.5267 149.816 11.5068 149.816 13.301V18.6991C149.816 20.4933 150.676 21.4734 153.081 21.4734C155.487 21.4734 156.347 20.4933 156.347 18.6991Z" fill="#151620"/>
<path d="M161.787 10.8066V22.2873H160.736V9.7124H162.348L168.277 21.2139V9.7124H169.328V22.2873H167.715L161.787 10.8066Z" fill="#151620"/>
<path d="M176.134 22.4794C175.047 22.4794 173.677 22.2927 172.605 21.8727L172.812 20.9652C173.934 21.3074 175.083 21.4734 176.17 21.4734C178.307 21.4734 178.889 20.8304 178.889 19.228C178.889 17.2835 178.869 17.076 176.092 16.433C173.074 15.733 172.734 15.1885 172.734 12.6579C172.734 10.5993 173.486 9.52588 176.618 9.52588C177.705 9.52588 178.997 9.71256 179.842 9.96146L179.708 10.9052C178.791 10.6978 177.627 10.5267 176.649 10.5267C174.171 10.5267 173.836 11.1334 173.836 12.6994C173.836 14.7374 173.893 14.8307 176.52 15.4944C179.801 16.3241 179.992 16.796 179.992 19.1762C179.997 21.2297 179.306 22.4794 176.134 22.4794Z" fill="#151620"/>
</g>
<defs>
<clipPath id="clip0_669_20217">
<rect width="179.995" height="32" fill="white"/>
</clipPath>
</defs>
</svg>
